<?xml version="1.0" standalone="no"?>
<!DOCTYPE svg PUBLIC "-//W3C//DTD SVG 20010904//EN"
 "http://www.w3.org/TR/2001/REC-SVG-20010904/DTD/svg10.dtd">
<svg version="1.0" xmlns="http://www.w3.org/2000/svg"
 width="378.000000pt" height="352.000000pt" viewBox="0 0 378.000000 352.000000"
 preserveAspectRatio="xMidYMid meet">

<g transform="translate(0.000000,352.000000) scale(0.100000,-0.100000)"
fill="#18c0a6" stroke="none">
<path d="M2851 2829 c-93 -16 -232 -68 -334 -125 -235 -133 -378 -355 -379
-589 -1 -206 68 -347 251 -512 123 -113 142 -194 62 -274 -52 -53 -93 -58
-182 -26 -61 23 -71 24 -84 11 -15 -16 -175 -270 -175 -279 0 -3 -15 -27 -32
-53 -18 -26 -44 -69 -58 -95 l-25 -48 25 -20 c88 -69 264 -119 419 -119 177 0
400 71 547 176 72 51 164 147 215 227 107 165 127 402 49 575 -40 87 -95 159
-201 262 -91 90 -117 138 -103 195 9 34 66 83 109 91 37 7 140 0 187 -11 26
-7 29 -3 143 225 64 128 115 239 113 248 -5 25 -88 77 -160 101 -144 48 -263
60 -387 40z"/>
<path d="M880 2820 c-41 -4 -165 -15 -275 -24 -110 -9 -203 -20 -206 -24 -4
-4 -21 -104 -38 -222 -148 -999 -261 -1794 -261 -1834 0 -21 -13 -21 250 4 47
4 149 13 227 20 78 7 146 16 152 20 6 3 16 42 22 86 6 43 14 106 19 139 5 33
14 96 20 140 6 44 15 107 20 140 5 33 18 123 29 200 11 77 28 187 36 245 20
134 23 150 35 150 10 0 12 -3 87 -174 27 -60 53 -111 60 -113 10 -4 69 60 191
206 25 29 51 51 63 51 16 0 19 -7 19 -47 -1 -27 -29 -244 -64 -483 -35 -240
-59 -440 -55 -446 6 -7 29 -8 66 -4 63 8 247 24 441 39 68 5 127 13 132 17 4
5 13 52 19 104 6 52 15 124 20 160 5 36 14 99 20 140 6 41 29 199 51 350 42
283 52 357 71 495 5 44 19 136 30 205 35 228 52 371 43 379 -8 7 -99 2 -498
-28 -76 -6 -144 -16 -152 -22 -8 -6 -24 -28 -36 -48 -77 -126 -210 -321 -217
-317 -4 3 -18 40 -30 83 -24 86 -44 153 -92 316 l-32 107 -46 -1 c-25 -1 -80
-5 -121 -9z"/>
</g>
</svg>
