<?xml version="1.0" standalone="no"?>
<!DOCTYPE svg PUBLIC "-//W3C//DTD SVG 20010904//EN"
 "http://www.w3.org/TR/2001/REC-SVG-20010904/DTD/svg10.dtd">
<svg version="1.0" xmlns="http://www.w3.org/2000/svg"
 width="1692.000000pt" height="749.000000pt" viewBox="0 0 1692.000000 749.000000"
 preserveAspectRatio="xMidYMid meet">

<g transform="translate(0.000000,749.000000) scale(0.100000,-0.100000)"
fill="#003936" stroke="none">
<path d="M2259 5926 c-3 -3 -65 -10 -139 -16 -74 -6 -196 -17 -270 -25 -74 -8
-214 -19 -310 -25 -128 -8 -178 -15 -186 -25 -6 -8 -16 -49 -22 -92 -6 -43
-34 -231 -62 -418 -56 -380 -207 -1425 -300 -2078 -33 -235 -58 -432 -55 -437
8 -14 47 -13 200 5 71 8 182 19 245 25 63 5 151 14 195 19 44 5 123 12 176 16
52 4 101 10 107 14 11 7 27 92 51 271 5 36 37 256 71 490 34 234 72 500 85
591 27 185 38 221 69 217 23 -4 43 -38 103 -173 24 -55 50 -114 58 -130 7 -17
18 -43 24 -58 18 -46 9 -53 203 168 98 111 119 130 147 133 43 4 60 -19 61
-81 0 -46 -42 -363 -95 -712 -45 -294 -75 -520 -75 -552 0 -42 -11 -42 332 -3
47 6 180 15 295 20 241 12 309 23 318 50 3 10 10 51 15 92 9 71 20 155 40 288
5 36 17 117 25 180 9 63 25 171 35 240 24 153 35 231 55 380 9 63 22 156 30
205 8 50 21 140 30 200 17 116 37 257 60 415 14 94 29 196 60 420 9 63 20 142
26 175 13 84 7 88 -111 75 -52 -5 -131 -10 -175 -10 -44 0 -136 -7 -205 -15
-69 -8 -153 -15 -187 -15 -34 0 -109 -5 -165 -12 -123 -14 -120 -11 -223 -176
-38 -62 -97 -153 -130 -203 -33 -50 -73 -113 -90 -142 -16 -28 -34 -51 -39
-51 -11 -1 -56 129 -56 163 0 15 -12 58 -26 96 -15 39 -33 99 -41 135 -8 36
-27 102 -43 147 -16 46 -37 111 -46 146 -9 34 -21 65 -27 69 -13 9 -31 10 -38
4z"/>
<path d="M6866 5175 c-30 -16 -119 -39 -211 -54 -27 -5 -63 -16 -80 -25 -16
-9 -36 -16 -43 -16 -30 0 -253 -110 -295 -146 -16 -14 -51 -36 -77 -49 -27
-13 -59 -38 -72 -54 -12 -16 -47 -48 -76 -70 -49 -39 -80 -82 -193 -261 -61
-96 -109 -295 -109 -448 0 -113 37 -234 119 -391 26 -49 222 -269 287 -321 25
-19 80 -74 123 -121 100 -110 114 -148 109 -293 l-3 -104 -45 -58 c-25 -33
-74 -81 -109 -107 l-64 -48 -136 3 c-122 3 -139 5 -168 26 -17 12 -37 22 -45
22 -11 -1 -105 -132 -117 -164 -2 -6 -21 -37 -43 -68 -21 -31 -38 -60 -38 -63
0 -3 -18 -33 -40 -65 -22 -32 -40 -62 -40 -65 0 -3 -31 -53 -70 -110 -38 -57
-70 -107 -70 -110 0 -3 5 -5 11 -5 5 0 27 -11 47 -25 20 -14 43 -25 50 -25 17
0 81 -29 102 -45 8 -7 51 -20 95 -29 44 -9 99 -21 123 -26 57 -13 379 -13 387
0 3 6 24 10 45 10 21 0 42 5 45 10 3 6 15 10 25 10 26 0 282 81 300 95 8 6 35
18 60 25 25 8 63 24 86 37 23 12 61 33 85 46 25 13 65 38 89 56 25 17 64 44
88 60 42 27 232 227 232 244 0 5 14 28 30 52 17 24 30 50 30 57 0 7 10 29 23
48 78 118 104 489 42 613 -8 16 -15 34 -15 39 0 5 -13 28 -29 51 -15 23 -32
53 -36 66 -4 13 -112 137 -239 275 -127 138 -239 262 -249 276 -14 20 -17 47
-17 141 0 115 0 117 33 165 17 27 41 53 52 59 11 6 33 19 49 30 27 18 50 20
230 23 111 1 206 2 213 2 6 0 15 10 19 23 3 12 12 29 19 37 7 8 18 31 24 51 7
20 21 45 31 54 11 10 20 26 20 35 0 10 9 29 20 43 11 14 20 28 20 32 0 4 15
37 34 73 152 300 157 312 137 312 -5 0 -32 18 -61 41 -38 30 -65 42 -105 49
-29 5 -66 15 -82 23 -16 9 -53 20 -83 25 -30 6 -68 18 -85 26 -43 23 -346 23
-389 1z"/>
<path d="M4635 5145 c-159 -29 -266 -70 -389 -149 -183 -117 -351 -334 -425
-547 -36 -103 -64 -290 -56 -374 26 -263 148 -490 343 -635 45 -33 189 -107
221 -113 255 -52 355 -51 543 4 282 83 551 333 659 614 56 145 70 217 70 363
-1 73 -3 145 -7 160 -13 61 -68 218 -80 233 -8 8 -14 19 -14 23 0 5 -20 39
-45 76 -66 99 -174 196 -281 251 -111 58 -166 77 -274 95 -102 17 -171 17
-265 -1z m155 -579 c55 -29 115 -105 135 -170 19 -64 19 -196 0 -269 -20 -77
-48 -130 -98 -184 -103 -112 -220 -119 -323 -19 -71 71 -87 124 -82 282 3 105
6 126 31 178 81 173 216 246 337 182z"/>
<path d="M8340 5135 c-52 -13 -122 -37 -155 -53 -33 -16 -78 -38 -100 -48
-170 -77 -401 -303 -502 -490 -41 -76 -95 -218 -115 -299 -23 -99 -28 -274 -9
-370 17 -86 76 -216 136 -300 92 -129 264 -240 420 -270 189 -36 439 -4 602
78 l65 32 22 -28 c11 -15 35 -44 52 -64 l30 -36 36 24 c42 28 339 261 362 285
9 8 16 19 16 24 0 4 -22 35 -50 68 -27 33 -50 67 -50 77 0 9 11 31 24 48 45
61 134 252 156 337 33 127 34 363 2 473 -37 130 -117 264 -203 342 -37 33
-138 103 -179 123 -150 73 -377 92 -560 47z m170 -546 c102 -23 170 -148 155
-285 -7 -65 -7 -65 -69 -117 -250 -208 -296 -249 -296 -264 0 -9 10 -27 21
-40 19 -20 20 -23 6 -29 -22 -8 -85 13 -123 42 -18 13 -44 47 -58 76 -22 44
-26 65 -26 139 0 162 56 297 162 395 51 47 76 62 133 80 50 16 42 15 95 3z"/>
<path d="M9500 5154 c0 -5 -45 -326 -101 -714 l-101 -705 22 -58 c59 -155 231
-284 462 -346 139 -37 169 -41 281 -41 334 0 570 138 742 433 29 50 39 84 54
182 6 33 20 114 31 180 12 66 26 143 30 170 5 28 14 77 20 110 5 33 14 87 19
120 5 33 23 140 40 237 32 181 37 233 24 241 -5 3 -78 -1 -163 -9 -347 -32
-422 -42 -436 -56 -15 -15 -52 -228 -120 -678 -19 -129 -37 -243 -40 -253 -14
-45 -108 -97 -177 -97 -40 0 -87 30 -94 60 -6 24 8 204 27 325 5 33 14 96 20
140 6 44 16 112 21 150 6 39 14 95 18 125 4 30 21 144 36 252 16 109 26 200
24 203 -14 14 -639 42 -639 29z"/>
<path d="M12419 5156 c-4 -5 -131 -14 -563 -41 -518 -32 -681 -46 -693 -58 -6
-7 -66 -392 -133 -857 -66 -465 -124 -860 -127 -879 l-6 -34 99 6 c167 11 347
25 389 31 22 3 103 10 180 16 132 10 206 18 385 40 41 5 136 14 210 20 74 6
145 13 157 16 26 5 37 36 53 159 6 50 16 110 20 135 15 78 23 200 14 200 -13
0 -296 -28 -404 -40 -161 -17 -361 -33 -365 -28 -8 8 8 108 19 124 8 10 40 18
101 24 110 12 204 25 209 31 2 2 9 56 15 119 6 63 14 142 17 174 l7 59 -147
-7 -148 -7 6 53 c13 106 18 128 29 135 7 5 80 16 162 25 83 10 186 22 230 28
44 5 145 16 225 25 82 9 150 21 157 28 6 6 19 69 28 138 9 70 24 179 34 243 9
64 15 119 12 121 -6 6 -166 7 -172 1z"/>
<path d="M13298 5154 c-5 -4 -198 -20 -481 -39 -89 -6 -98 -9 -102 -28 -11
-46 -166 -1105 -210 -1432 -9 -66 -23 -166 -31 -223 -22 -157 -28 -144 69
-139 365 18 525 29 544 37 17 7 23 20 28 67 3 32 12 87 18 123 14 76 21 78
109 34 55 -27 185 -83 323 -139 44 -17 100 -41 125 -53 25 -11 70 -29 100 -40
30 -11 62 -23 71 -26 12 -5 26 7 53 48 20 30 39 63 43 73 3 10 16 32 29 48 43
59 144 249 137 256 -14 13 -379 162 -453 184 -14 4 -48 18 -77 31 -28 13 -63
28 -77 34 -45 17 -30 36 57 70 264 105 474 286 530 458 73 221 17 401 -162
521 -85 57 -139 80 -268 112 -99 24 -138 29 -244 29 -69 0 -128 -2 -131 -6z
m277 -475 c58 -27 87 -62 76 -92 -13 -36 -101 -95 -191 -128 -94 -34 -186 -56
-195 -47 -4 3 -2 32 4 65 5 32 15 94 22 138 7 44 14 84 17 89 3 5 53 6 113 3
80 -5 120 -12 154 -28z"/>
<path d="M15310 5149 c-25 -5 -139 -20 -255 -34 -290 -35 -357 -44 -376 -50
-11 -4 -30 -44 -53 -113 -35 -104 -54 -153 -82 -219 -8 -17 -14 -34 -14 -39 0
-9 -67 -196 -85 -239 -7 -16 -38 -100 -68 -185 -30 -85 -71 -195 -91 -244 -20
-49 -36 -92 -36 -97 0 -5 -25 -73 -56 -151 -55 -140 -94 -252 -94 -274 0 -6
19 -17 43 -24 23 -7 60 -19 82 -27 22 -8 81 -28 130 -44 50 -15 134 -44 188
-63 129 -46 148 -48 164 -16 20 39 48 107 84 205 18 50 39 98 48 108 13 16 34
17 235 15 l221 -3 20 -89 19 -88 46 6 c25 3 90 20 145 37 293 91 421 133 433
144 13 11 -8 84 -89 305 -17 47 -37 103 -44 125 -7 22 -34 96 -60 165 -26 69
-57 154 -70 190 -13 36 -38 103 -55 150 -17 47 -37 106 -44 132 -8 25 -17 51
-21 58 -8 13 -71 187 -89 245 -6 22 -22 59 -34 83 -21 38 -26 42 -60 41 -20
-1 -57 -5 -82 -10z m-158 -836 c33 -162 59 -297 61 -313 2 -12 -19 -15 -120
-18 -85 -2 -123 1 -123 8 0 11 18 60 80 215 15 39 38 103 50 142 13 40 25 71
28 69 2 -3 13 -49 24 -103z"/>
<path d="M7530 3094 c0 -5 -15 -115 -34 -244 -19 -129 -39 -291 -45 -360 -6
-69 -16 -159 -22 -201 -10 -70 -9 -79 10 -116 27 -54 89 -106 175 -147 95 -44
185 -60 306 -53 91 5 104 8 179 47 59 31 97 59 137 103 95 105 105 138 168
516 31 184 53 337 51 340 -11 10 -355 -32 -366 -45 -5 -7 -28 -131 -50 -276
-48 -324 -43 -305 -79 -323 -35 -18 -111 -20 -128 -3 -19 19 -15 60 33 393 25
171 45 320 45 332 0 15 -8 23 -27 27 -53 10 -353 19 -353 10z"/>
<path d="M8860 3093 c-206 -14 -305 -24 -312 -31 -7 -7 -59 -347 -131 -852
-29 -206 -31 -235 -18 -238 9 -1 92 1 185 6 132 7 171 12 180 24 6 8 22 96 35
195 l25 181 56 5 c74 8 207 50 284 90 76 40 185 147 214 209 12 26 25 72 28
101 12 100 -53 199 -167 257 -105 54 -195 66 -379 53z m215 -290 c19 -9 36
-22 39 -29 14 -38 -102 -110 -208 -130 -37 -6 -39 -6 -33 17 3 13 9 51 12 84
4 33 12 66 18 74 15 17 123 7 172 -16z"/>
<path d="M9730 3088 c-69 -4 -150 -12 -180 -16 l-55 -7 -16 -100 c-41 -246
-142 -985 -136 -991 9 -10 367 18 374 29 3 5 17 90 32 190 l27 181 74 12 c161
26 287 84 385 176 147 137 166 296 49 413 -25 24 -73 58 -107 74 -111 52 -178
58 -447 39z m249 -269 c28 -6 61 -19 73 -29 19 -15 21 -21 11 -43 -7 -15 -33
-37 -62 -51 -52 -27 -168 -63 -176 -54 -5 5 21 164 30 178 8 13 62 13 124 -1z"/>
<path d="M10606 3088 c-77 -4 -142 -11 -145 -13 -11 -11 -164 -1054 -156
-1063 1 -2 51 2 111 8 60 6 203 16 317 24 115 7 213 18 218 23 11 11 46 279
38 287 -3 3 -60 1 -128 -5 -67 -6 -125 -9 -128 -5 -5 5 6 86 78 546 16 102 29
191 29 198 0 14 -22 14 -234 0z"/>
<path d="M11229 3008 c-90 -45 -166 -83 -167 -84 -5 -3 30 -61 158 -258 61
-93 110 -176 110 -184 0 -14 -173 -355 -193 -380 -12 -15 -11 -15 33 -29 19
-6 73 -25 120 -42 92 -34 171 -61 182 -61 3 0 68 123 143 273 129 257 140 276
209 347 40 41 125 131 188 200 l116 126 -71 43 c-40 23 -103 62 -142 86 -38
25 -75 45 -82 45 -6 0 -62 -54 -125 -120 -62 -66 -119 -119 -126 -118 -8 2
-49 55 -91 118 -42 63 -81 116 -87 117 -6 2 -84 -33 -175 -79z"/>
</g>
</svg>
